<svg id="图层_1" data-name="图层 1" xmlns="http://www.w3.org/2000/svg" viewBox="0 0 182.05 74.32"><defs><style>.cls-1{fill:none;}</style></defs><path class="cls-1" d="M422.44,220.53c2.7-.71,7-.42,6-4.36-7.05.74-7.63-5,.42-6.18a11.31,11.31,0,0,1,1.76-4.86c-6.55-5.38,3.35-6.85,7-7.17v-3c-11,1.38-9.54-7.94,0-7.17-1.18-6.75,6.27-10.3,8.09-2.54,3.5-1.34,7.38-1.14,7.8,2.82-.93,4.71-10.34,2.51-9.28,8.15,1.56-.44,5.82-1.94,7.81-2.67,5.83,1.12,2.43,6.71-1.76,7.1,1.58.29,4,1.92,3.94,3.59,2.66-1,5.81-1,6,2.28-.77,3.07-10.06,3.86-8.72,7.14-.48.82,9.93-4.89,10.55,0-1.69,5.59-13.84,5.32-19.12,7-2.81.08-4.9-4.66-1.2-5.34,2.62-.13,4.48-.05,4.64-2.88-4,1.09-8.32-2.13-5.48-4.79,5.69-1.68,6.82.43,7.24-6.25-3.1,1.38-10.58,2.73-12.73,3.65-.16,2.44,2.48,2.76,2.67,5.1-1.11,3.09-5,2.33-4.92,7.07,3.22-2.47,7-.47,4.57,2.53-3.72,2.54-11.09,4.86-15.4,6,2.07,13.17-9.75,21.06-7.59,7-2.77,2.94-6.4,7.3-10.09,8-4.41-.09-3.86-5.14-1-6.61-1.83-10-4.44-33.78,2.74-44,2.63,1.17,4.31,3.35,7.39,2.6C427.88,185.44,421.13,214,422.44,220.53Zm-14.2,10.76a67.69,67.69,0,0,1,6.89-3.52q.57-10.47.56-28c-.22-4.81.53-3.18-3.05-2.25-6.32.67-3.54,10.05-4.47,13.43,9.73-4.94,8.46,5.79-.21,6C407.93,221.94,408.14,224.19,408.24,231.29Zm27.21.91c-4.86,1.67-8.56,1.28-9.35-3.37,1.82-3.9,3.9-1.61,11-3.66,7.52-1.17,11.38-3,15.79-3.8,7.13,2.46,1.41,7-3.45,7.11,1.15,3.46-3.12,8.09-2.25,12.93.42,6.15,12.11,4.5,14.63.85,1.51,1.76,3-16,4.08-7.6,17.24,21.17-33.95,24.92-23.14-2.53-6.1,5.83-12.59,14.81-21.72,16.81C422.7,243.05,431.18,237.64,435.45,232.2Z" transform="translate(-401.46 -178.41)"/><path class="cls-1" d="M494.5,225.88c-5.88.14-5.8-9,0-8.86C500.48,216.86,500.51,226,494.5,225.88Z" transform="translate(-401.46 -178.41)"/><path class="cls-1" d="M553.83,215.75c.89,1,2,3,.56,4,14-2,16.67-1.63,5,13.71-3,2,1.42,8.17-3.09,8.58-7-1.56-15.27,9.76-23.91,10.68-1.18-2,11.38-12.54,15.26-16.52-2.27-1.79-5.93-4.46-5.27-6.47-21.5,16.91,2.25-10.63,6.68-13.5-29.37,3.86-11.61,7-23.27,16.25-5.33-2.43-.4-30.83,6.32-17.65,14.36-4.33,32.13-2,45.43-5.91,2.92.11,6.07,6.6,6,8.23-.91,5.13-7.44-.07-11.39,2.63-6.88,3.38-.39-2.12,1.69-5.52C570.33,214,557.58,215.4,553.83,215.75Zm-1-31c1.38,4-7.24,4.29-8.44,8.23-.12,3.25-3.58,2.11-4.43-.63-11.3,3.38-15.58-6.29-1.62-5.84-2-7.71,7.57-6.59,6.89-.91C547.53,185.56,551,183.67,552.85,184.74Zm10.82-6.33c3.5,0,5.3,3.65,2.46,6.54a36.78,36.78,0,0,0,7.18-3.09c2.74.39,5.52,4.83,2,6.5-8.06,1.75-13.06-.35-19.79,6,30.2-5.06,11.84,17.59,6.18,12.37-2.46,1.14-14.48,2.93-18.59,3.38-5-1.12-2.72-5.93,1.72-5.07a27.77,27.77,0,0,1-.84-4.22c-7.59.91-5.66,3.58-4.57,9.29-2.46,7.41-10.25-8.3-6.82-11.54,5.13-2.41,16-2.65,19.89-3.94,1-1.42,3.25-4.42,3.94-5.62-5.2-.46-3.41-.72,1.2-2.11C560.62,184.1,559.63,178.74,563.67,178.41Zm-18.35,49.5c7.23,1.92,8,3.62,12.24-3.51-.91-2-6.11-.65-6.75-2.32-2,1.83-4.33,4.25-6.4,5.9A6.35,6.35,0,0,1,545.32,227.91ZM553.9,199c-1.68.28-3.78.52-5.84,1,1.4,3.64-1.54,5.4,4.43,3.87C552.6,204.12,553.83,198.49,553.9,199Zm6.89,3.23c1.22.09,1.94.45,2.18,1.05a8.83,8.83,0,0,0,3.09-6.89c-2.85,1.47-4.76,1.54-7.1,1.9.26,1.64-.32,2.63-1.83,4.64Z" transform="translate(-401.46 -178.41)"/></svg>