<svg id="图层_1" data-name="图层 1" xmlns="http://www.w3.org/2000/svg" viewBox="0 0 680 440"><defs><style>.cls-1{fill:#fdfdff;}.cls-2{fill:#96533f;}.cls-3{fill:#f4b079;}.cls-4{fill:#fcfcfc;}</style></defs><g id="图层_2" data-name="图层 2"><rect class="cls-1" width="680" height="440"/></g><path class="cls-2" d="M738.1,420.5c-6.3-8.8,6.3-22.1.7-25.1-7.5.2-9.9-13.6,5.3-2.2,13.2,19.3,124.6,4.2,44.4,4.6-31,13.2-67.2-43.7-62.8-16.4-17.3-10.7,27.9-31.9,37.2-39.1-2.4-5.5-18.5-1.8-25-.5-3.2,8.3-12.6-4.6-11.8,5.9-.2,5.1-5.6-.3-5.5-2.9.4-47.2,32.1-41.6,27.4-77.2-6.9-14.1,1.9,31.4-14.2,25.8,8.4-4.2,11.7-25,3-26-11.5,1.2-6.9-10-8.8-17.1,6.6-.6,15.4,14.7,21.7,8.2,1-3.7,1.8-17.7,3.4-7-7.4,21.8,5.4,36.9,10.8,56.1,6.7-22.7-23.8-56.5,1.6-78.1,9.1-7.3-16.4,34.5-3.3,29.9-2.5-1.7,34.1-42,17.9-16.3-3.8,7.3,10.8,5.9,9.4-1.5,5.6-16.4,2.9,15.8,16.3,4.5,9.5,5.2,1.5-13.7,7.1-15.7,6.5,1.1,3.1,13.1,10.7,14,2.8.2,5-6.4,1.1-7.1,5.9-7.3,3.6,6.2,7.6,7.2,2.9,3,13.2,3.7,11,8.6-1.5,2.8-6-4-7,1.9-8.9-10.6-9.7,2.7-6.4,9.8,26,3.7,15.6-27.1,9.3-40.2,10.6,5,12.7,19.6,12.6,31.1,2.1,7,5-4.3,4.2-6.9,2.5-8.6-11.2-20.4-6.1-24.4,10.1,20.6,16.8,14.4,7.1-3,26.4-8.1-101.8-52.8-105.6,10.2,11.5,9.7-5.9,11.8-11.7,4.3-10-11.7-36-9-44.7-21.1,20.1,4.4,42.3,24.7,36-10.7,6.5-19.6,34.7,5.4,46.8-4.9,49.8-8,36.6-25.4,68.4,6,17.7,6.1-3.6-17.7,26.9-20.6,4-9.6-.7-39.1,17.4-25.7-10.8,2.2,1.7,14.6,1.7,1.2,5.5,7.5-3.2,15.2,7.2,19.5-3.1-.4-7.5-.9-5.5,4.9-10.4,11.7,14.5,14.4,4.4,17.5-.8-5.3-4.8,12.8,3.9,13.9-5.4,4-6.4-1.9-9.1-4-4.9-1.2,5.4-9.9-.9-11.7-5.5-9.3-7-53.4-13-14.3.2,12.7-8.3,24,12.8,12.1-.4,7-22.5,10.1-17.5,21.4-.7,6.5,4.7,2.4,6-1,20.1-18.9-3,9.2-9.2,18.6-8.4,32.2-5.9,62.2,1.4,98.3-7.8,22.4-5.5-64.1-17.1-33.9-2.1-2-.7-9.6-5.9-8.6,1.4,14.9-8.1,45,11.2,49.5-4.3-19.1,4.1-11.1,6.2,2.3-39,7.7-16-46.8-24.8-68.4-9.5-4.2,1.3,18.4-9.7,16,2.1-17.3-10.4-10.1-21.5-4.7-3.6,3.4-27.2,3.6-19.6.6,20.1,1.5,20.8-7.9.3-5.1-5.8-1.5-15.4,18.2-8.1,12.5,9.3-20.7-2.6,33.8,12.4,20.5,8.1-7.8,11.3,35.3,27,33.8,1.2-3.9,4.4-9.6,6.9-3,3,4-4.6,6.7-1.2,10.6,7,2.5,7.9-15,13-11.1-13.4,16.6,17.5,45.8,3.8,48.6-2.2-.8,3.4-9.3-3.8-6.2-4.6,5.1-13.3,3.9-17.5,8.2,3.4,5.1,10.9-2,15.7-.1-2.6,3.3-4.7,6.7-9.7,5.9-9.1,2.5,1.7,22.9-16.5,17.8-8.4-26.2-28.5-9.6-50.9-16.8C751.2,398.3,753.5,426,738.1,420.5Zm34.3-152.4c7.8-4-.5-13.5-2.1-4.7-6.1,9.2-8.5,33.4,7.5,29.9,6.3-25.8,45-4.3,58-20.1-4.6-3.7-23.8,5.1-19-7.5,11.3,3.4,10.6-8,5.7-13.2-20.4-18.1-12.8,40-29.1,1.2-1.9-7.2-10.7,13.2-9.8,2.8,4.7-8.1-12.7-4.9-.2,5-6.5,6.2,11.6,2.5,15.4,3.6C802.8,276.4,771.9,275.3,772.4,268.1ZM851,271c1.1,4.6-6.3,2.4-5.5,5.9s.1,11.3,5.7,7.8C866.3,274,837.9,257,851,271Zm-77.6,38c-.8,4.2-.7,12.2,3.9,13.7C787.7,316.4,782.7,285.6,773.4,309Zm85.4-29c3.8,28,11.1-11.8,1.7-18.8C849.5,257.3,860.2,274.8,858.8,280ZM816.1,412.5c-8.6-.3-1.6,5.5,3.6,5.4S820.7,410.9,816.1,412.5Zm4.5-2.2c9.1-2.9-4.2-2.4-6.4-3.9s-2.6,1-2.2,2.5S818,408.3,820.6,410.3Zm-74.4,4.1c-.8-2.8-3.7-2.1-5.6-3.1C735,412.2,746.3,421.3,746.2,414.4Zm1-4.1c-1.1-2.4-4.1-7.6-6.4-4.3S745.3,409.2,747.2,410.3Zm92.2-138.6c2.7.1,3.2-5.9.3-5.4S836.7,271.9,839.4,271.7ZM750.7,404.8c.2-1.6-4.8-5.3-5.2-2.3S749.4,406.9,750.7,404.8Z" transform="translate(-460 -96)"/><path class="cls-3" d="M918.8,211.5c10.4,2.2.3,13.2,7.6,17.3,3.8,2.2.9,5.7,2.3,8.6-3.8-1.4-1.5-6.7-5.8-7s.2,5.9-3.5,6.7-3.7-4.3-1.8-6.1C920.2,225.2,906,216.7,918.8,211.5Zm-2.5,7.9c-.1,5.3,5,1.8,4.2-1.9C920.2,212,915.3,215.3,916.3,219.4Z" transform="translate(-460 -96)"/><path class="cls-2" d="M717.3,234.6c-11,11-54-43.5-23.7-20.1C684.1,220.8,710.9,229.8,717.3,234.6Z" transform="translate(-460 -96)"/><path class="cls-3" d="M901.7,223.7c1.4-1,6.7,1.5,3.3-3.8,1.8-4.7,7.1,4.9,3,6.6-8.5,6.3,13.5,11.4.7,19.7-5.2-.9,2.5-16.8-3.8-7a3.3,3.3,0,0,0-2.8-1c-.8-2.3,6.6-3.2,2-5s-2.7-2.5-2.4-4.6C906.4,227,900.5,225.3,901.7,223.7Z" transform="translate(-460 -96)"/><path class="cls-2" d="M879.9,315.9c6.6,7.1-.4,42.7-10.5,28.4C884.1,345.6,875.1,323.4,879.9,315.9Z" transform="translate(-460 -96)"/><path class="cls-3" d="M907.1,204.4c-3.3-8,2.2-16.3-3.6-21.4C912.1,178.6,911.2,203.1,907.1,204.4Z" transform="translate(-460 -96)"/><path class="cls-2" d="M726.6,300c-4.4,8.1-8.6,15.1-5.8,24.7C714.9,320.5,717.1,301.7,726.6,300Z" transform="translate(-460 -96)"/><path class="cls-3" d="M894.6,170.2c5.2-5.7,15.2,9.3,6.8,8.4C902.6,173,898,172.1,894.6,170.2Z" transform="translate(-460 -96)"/><path class="cls-2" d="M907.1,204.4c2.7,0,17.6,7.4,7.7,9.1C915.4,207.9,906.7,210.2,907.1,204.4Z" transform="translate(-460 -96)"/><path class="cls-2" d="M902.1,238.2c5.4-.4,3,6.1,6.6,8C907,252.5,901.2,241,902.1,238.2Z" transform="translate(-460 -96)"/><path class="cls-3" d="M916.8,209.1c-2.7-1.8-5.4-10.1-1.3-11.3C919.1,199.2,916.1,205.8,916.8,209.1Z" transform="translate(-460 -96)"/><path class="cls-2" d="M874.8,302.3c-2.3,7.5-5.2-2.2-6.4-5C869,292.9,875.2,299.5,874.8,302.3Z" transform="translate(-460 -96)"/><path class="cls-2" d="M901.7,223.7c-1.2,1.6,4.7,3.3,0,4.9C896.3,225.7,895,215.8,901.7,223.7Z" transform="translate(-460 -96)"/><path class="cls-2" d="M716.9,239c3.2-3.4,9.4,5.4,8.5,8.5C721.7,245.5,719.4,242.2,716.9,239Z" transform="translate(-460 -96)"/><path class="cls-2" d="M901.1,184.3c.5,4,1.4,8.1-.1,12.2C898.9,194.7,897.3,184,901.1,184.3Z" transform="translate(-460 -96)"/><path class="cls-3" d="M899.6,195.6a2.2,2.2,0,0,1,.9,3.7C899.7,198.2,897.5,196.4,899.6,195.6Z" transform="translate(-460 -96)"/><path class="cls-3" d="M899,180c.4.5,2.7,3.6,2.1,4.3S897,181.4,899,180Z" transform="translate(-460 -96)"/><path class="cls-3" d="M849.9,224.4c-33.5,1.4,24,37.6-20,40.4-6.5-20.8,4.2-9.6,13.4-11.7,1.9-7.2-16.5-5.2-13.4-15,11.5,8.6,3.2-11.1-1.4-2.6-13.9,7-13.6-12.5-17.5-2.1,2.2,12.4-16.3.3-15.2,10-2.3-1.3-.8-6.2-3.6-6.5-4.9,2.3-1.1,12.1-9.6,11.2s3-10,3.1-15.8c-5.4,7.2-27.9,12.1-17.9-.8-29.1-11.7,11.9,115.7-9.2,58.9-15.2-12.4-1.7-33.5-7.5-48.5,11.8-7.5-5.3-8.7-.9-17C764.2,190.4,854.6,185,849.9,224.4Z" transform="translate(-460 -96)"/><path class="cls-3" d="M841.4,275.6h-1.5" transform="translate(-460 -96)"/><path class="cls-4" d="M722.2,328.2l.9-1.2Z" transform="translate(-460 -96)"/><path class="cls-2" d="M829.3,323.8c12.1-13.8,8,13,4.1,18.9C825.9,340.3,831.3,329.6,829.3,323.8Z" transform="translate(-460 -96)"/><path class="cls-2" d="M831.6,301.2c6.4-11.4,9.9,11.6,4.1,13.9C829.1,314.3,834.5,305.3,831.6,301.2Z" transform="translate(-460 -96)"/><path class="cls-2" d="M857.5,324.7c-.4-3.8-.6-27.1,3.1-16.3C859.5,312.9,863.9,324.2,857.5,324.7Z" transform="translate(-460 -96)"/></svg>