<?xml version="1.0" encoding="UTF-8"?>
<svg id="_图层_1" data-name="图层 1" xmlns="http://www.w3.org/2000/svg" viewBox="0 0 1093.51 571">
  <path d="m550.25,507.49c-15.71-10.18-30.43-20.8-49.55-21.01-3.15-.03-4.02-1.7-4.68-4.56-11.97-50.16-64.43-85.39-114.92-76.73-3.6.53-4.94-.13-5.74-4.25-.72-50.19-25.34-80.57-68.04-104.53.68-.07,1.52-.43,2-.15,21.66,12.42,25.1-4.57,44.8-7.53,9.17-2.68,14.81-18.23,7.35-27.22-19.79-23.87-45.18-34.01-75.72-30.26-16.08,1.97-25.3,24.39-16.69,38.69,4.15,7.29,12.96,4.91,19.86,5.11,6.5-.02,11.16,6.17,3.07,8.57-5.83,4.28,1.48,5.84,1.77,8.79-6.83,0-13.7-.34-20.53.07-17.99,1.07-14.47.95-15.1,16.15-.9,21.35-.14,43.07,4.7,64.26,2.01,8.79-5.45,18.58-13.94,21.46-21.45,7.29-42.89,2.21-64.23.56-19.74-1.53-39.38-4.63-58.99-7.52-42.24-7.72-83.2-15.45-125.69-22.97,79.7,4.63,159.67,10.01,239.8,8.09,9.5.14,9.08-.05,7.18-9.06-5.77-27.42-7.05-55.09-5.19-83.11C259.11,19.01,586.47-96.2,764.61,95.24c39.54,41.9,65.85,94.09,77.36,150.36.75,3.72-.72,5.48-4.08,3.12-59.09-27.45-121.72,20.75-134.16,78.04-1.22,8.34-15.05-2.75-23.62,13.74-7.62,9.55,10.6,18.65-3.23,24.88-12.61,5.12-21.76,15.54-35.3,18.49-17.06,4.27-26.09,14.51-28.6,32.1-.63,4.39-3.51,7.6-5.53,11.21-5.53,9.88-8.72,20.4-9.4,31.64-.18,3.04-.9,5.41-3.81,6.54-20.4,7.9-33.25,23.69-43.96,42.13Zm12.87-245.96c7.44,40.15,14.61,1.12,40.97-3.65,14.39-4.32,2.95-10.92,6.83-19.44.96-1.85,1.16-3.67-.23-5.59-12.07-16.65-24.18-33.28-33.61-51.66-1.17-3.72-6.86-3.07-7,.58-.5,9.65-6.45,13.07-15,13.95-.83.09-1.68,1.02-2.32,1.73-6.14,6.88-5.65,21.6.47,28.61,1.45,1.67,4.75,2.3,4.12,5.53-2.56,13.99,16.47,4.04,10.58,14.5-2.04,4.99-3.26,10.32-4.8,15.43Zm-99.85-55.16c23.82,7.18,36.51,28.92,43.23,51.38,1.85,6.21,1.69,14.24,10.88,15.75,10.25,1.69,20.45,3.7,30.68,5.52,7.35,1.3,10.27-1.66,7.72-8.66-4.29-7.31-8.46-26.46-19.72-21.62-14.55,6.93-16.87-14.12-20.85-23.77-3.07-10.12-3.42-20.48-4.31-30.83-.13-1.48-.09-3.91-1.57-3.76-13.49,1.46-.16-12.8-19.15-34.62-.06,5.53,5.98,12.96,3.11,17.56-2.73,2.4-7.42-5.87-10.41-8.57,2.09,16.43,14.95,22.04,11.97,30.34-3.96,6.48-22.96,1.53-31.57,11.29Zm25.58,95.58c24.26,8.16,29.04,33.86,50.93,44.27,11.69,5.9,18.41,1.19,12.96-11.27-9.02-27.94,17.68-47.23-5.87-48.24-42.85-3.73-18.65-16.84-58.01,15.24Zm-91.63-210.08c-11.42.26-14.37,12.01-9.39,20.62,7.22,11.78,20.03,13.3,31.65,16.92,1.81.56,2.4-1.12,3.11-2.49,5.54-10.76,9.16-21.95,5.56-34.04-2.13-9.01-16.69-14.83-21.95-5.4-2.29,4-3.58,8.39-8.99,4.39Zm135.75,344.19c-3.85-1.21-7.38.63-10.93,1.44-14.76,4.22-2.38,15.28,7.05,8.15,3.83-4.37,7.23-5.13,12.19-1.05,3.72,2.04,15.27,6.42,17.32.16,3.37-7.86-12.46-15.23-18.46-9.81-2.07,1.48-4.6,1.85-7.16,1.1Zm17.95-62.33c8.54,2.06,5.31-8.47-1.87-8.03-9.81-.74-5.56,9.08,1.87,8.03Z"/>
  <path d="m402.92,547.71c.74,7.72-5.74,15.33,2.79,23.29-69.79-32.1-120.19-95.53-150.16-164.78-1.83-2.69-1.41-8.97,3.09-6.59,11.13,6.52,21.76,1.54,31.44-2.81,23.54-9.81,51.23.6,64.8,20.85,3.33,5.03,8.68,7.35,14.45,7.71,25.28,1.19,52.82,17.11,51.18,45.3,1.7,28.59-18.58,43.56-39.87,57.98-15.04,8.51,4.09,28.44,13.3,27.5,4.84-.64,4.5-6.34,8.99-8.46Zm10.82-76.82c-1.35-27.56-30.59-47.72-56.83-38.41-4.07,1.44-5.42.66-6.72-4.08-4.2-15.29-15.36-24.54-30.07-28.76-16.38-6.67-51.78,6.8-42.78,28.14,17.76,34.55,39.66,67.32,68.05,94.08,1.96,1.81,3.65,4.16,7.03,3.17,27.72-6.78,58.94-22.21,61.32-54.14Z"/>
  <path d="m1093.51,174.83c-66.45,38.06-130.32,78.78-200.17,110.06-4.89,2.38-9.5,1.43-14.12.07-9.76-2.43-25.93-.09-29.99-12.03.19-2.9,3.78-3.9,6.12-4.72,23.81-8.38,47.85-16.14,71.56-24.78,56.86-19.28,111.28-47.36,166.6-68.59Z"/>
  <path d="m657.81,458c42.27-2.53,60.88,43.86,75.65,75.27,1.5,2.29,1.34,4.32-.86,5.85-4.35,3.02-7.73,7.41-12.89,9.6-2.52-42.74-18.93-75.68-61.9-90.72Z"/>
  <path d="m759.88,483.74c2.1,2.48,18.47,11.25,15.21,13.76-4.23,3.25-14.84-8.74-15.21-13.76Z"/>
</svg>