<svg xmlns="http://www.w3.org/2000/svg" xmlns:xlink="http://www.w3.org/1999/xlink" viewBox="0 0 1458.56 810"><defs><style>.cls-1{fill:#fff;}</style></defs><g id="图层_1" data-name="图层 1"><image width="2078" height="1154" transform="scale(0.7)" xlink:href="C:%5CUsers%5Clishunsheng%5CDesktop%5C%E8%A5%BF%E8%A1%8C%E5%A6%96.PNG"/></g><g id="图层_2" data-name="图层 2"><path class="cls-1" d="M268.54,163.66,360.14,251l17.62,86.68S563.08,317.27,565.2,318s113.45,89.49,113.45,89.49L794.21,430l52.85,31.71,31.71,69.76L842.13,585l3.52,51.44H790l-19,45.1-117-3.52L457.38,798.55,666,716.81l117.68,17.62,72.58-45.1-47.91,55,9.86,35.23L699.08,838.72l160-51.44-11.27-34.53L902,671l-7-55.67,49.33-63.42-35.24-57.07,15.5-59.2L837.9,411.7l-33.82-61.31-39.46,19-68.36.7L563.79,274.29,398.9,294.72l-13.39-60.6Z" transform="translate(-239.13 -112.45)"/></g><g id="图层_3" data-name="图层 3"><path class="cls-1" d="M841,750.67,911,689.94l20.24-93.4,50.15-12.88-13.8-77.3,11-52,92.48-38.64s129.75,42.32,131.13,42.32,106.28-37.72,106.28-37.72l117.78,17.94,4.15-164.71,111.8-147.69-148.15,138-10.58,117.79-81.9-33.13L1205,399.62l-138.49-34.51-88.34,2.77-25.3,54.29-58.89,31.28Z" transform="translate(-239.13 -112.45)"/></g><g id="图层_4" data-name="图层 4"><polygon class="cls-1" points="663.53 730.01 774.42 692.74 735.77 651.79 735.31 566.22 718.98 529.87 762.91 478.34 744.51 399.66 815.37 303.5 787.3 238.17 812.61 152.13 751.41 81.74 764.3 10.88 731.63 83.12 785 147.07 744.97 226.67 677.34 287.86 594.06 130.05 622.13 73.46 547.59 0 595.44 76.22 547.59 133.27 566.46 201.82 597.28 229.43 617.07 339.39 659.39 459.47 629.03 561.62 564.15 626.03 572.9 665.6 456.03 730.01 619.37 675.26 608.32 632.47 667.68 589.22 692.06 514.69 703.56 546.89 688.38 568.06 710.92 606.7 698.04 642.59 736.69 687.68 663.53 730.01"/></g><g id="图层_5" data-name="图层 5"><polygon class="cls-1" points="838.83 40.33 873.34 124.53 853.09 171.92 672.74 331.11 729.28 512.85 773.04 544.59 812.61 611.3 868.28 596.12 933.15 637.07 976.86 623.73 1033.91 658.7 1165.5 661.46 1040.35 633.85 1001.24 589.68 938.67 586 883.46 540.91 835.61 556.09 796.04 523.43 771.66 445.21 773.04 328.81 888.98 195.84 901.4 118.08 838.83 40.33"/></g><g id="图层_6" data-name="图层 6"><polygon class="cls-1" points="950.17 744.73 887.14 717.59 889.44 683.54 849.87 680.32 770.28 632.01 605.56 333.41 533.79 289.24 429.35 267.15 414.62 226.67 322.61 161.79 473.06 230.81 537.93 210.1 440.39 172.38 467.07 129.59 379.2 103.82 310.64 116.24 267.85 44.93 318 95.54 374.6 84.5 488.7 111.18 488.7 171 578.88 197.22 636.85 263.01 661.24 182.04 635.93 144.77 681.94 40.33 660.31 145.23 694.82 177.9 685.62 256.11 759.24 219.76 831.93 250.13 946.95 161.79 1012.29 186.64 1044.49 128.67 1064.28 38.49 1064.28 146.61 1035.75 224.83 941.89 221.61 824.11 305.8 755.55 370.22 778.56 520.67 813.99 615.91 878.86 655.01 916.59 660.08 906 705.63 950.17 744.73"/></g></svg>