<svg xmlns="http://www.w3.org/2000/svg" viewBox="0 0 1285.74 759.91"><defs><style>.cls-1{fill:none;stroke:#9595c5;stroke-width:3px;}.cls-1,.cls-2,.cls-3{stroke-miterlimit:10;}.cls-2{fill:#f4f5f6;stroke:#585757;stroke-width:6px;}.cls-3{fill:#ebe7e1;stroke:#8e8e8e;}</style></defs><g id="合并版"><path class="cls-1" d="M1116,430.37c-24.64-8-45-14.64-45-14.64l-9.23,3.86-50,46.93-1.08,91.14,24.38,78.22,39.57,32.67,47.85-15.19,55.21,45.09,62.58,3.68,39.1,44.17,125.15,27.61L1273,771.15l-57-35-43.71,13.34-64.87-40.94-60,16.35L1118,767.47l37.73,5.06-10.58,45.55,44.17,39.11-63-27.15,2.3-34L1089,792.77l-79.6-48.31L974.46,681.1l.44,83.15,38.65,40.94L902.67,842.46l73.15-42.33L937.17,755l12.89-35.88-22.55-38.65,15.19-21.17-11.51-32.2-24.38,74.53-59.35,43.25,11,42.56-163.91,54.8L812,778.05l-8.74-39.57,48.46-48.12-68.11,44.07L666,716.81,457.38,798.55,654,678.06l117,3.52,19-45.1h55.67L842.13,585l36.64-53.55-31.71-69.76L794.21,430,678.65,407.47S567.31,318.68,565.2,318s-187.44,19.73-187.44,19.73L360.14,251l-91.6-87.37,117,70.46,13.39,60.6,162.84-20.47,150.45,69,64.87-20.7-97.54-37.73L706.21,242l-87.88-25.77L549.78,228.7,507,157.38,557.14,208l56.59-11,114.1,26.69v59.81l75.3,21.9,0-.08-16.39-59.55,47.85-57.05-47.85-76.22,74.54,73.46L833.19,242.5l52.74,99.94c6.74-22.4,14.44-47.95,14.44-47.95l-25.31-37.27,46-104.44-21.62,104.9L934,290.35l-9.2,78.22,64.18-31.69c9.81-21.57,35.2-77.36,35.2-77.36l-53.37-63.95,32.67-72.23-12.88,70.85,61.19,70.39-22.06,75,62.55-55.2L1112.47,237,1078,152.78l62.58,77.76-12.43,77.75L1100.46,340l85.63-65.76,65.33,24.84,32.21-58,19.78-90.18V259.06l-28.53,78.22L1181,334.06l-61.82,44.2L1205,399.62l96.62-51.07,81.9,33.13,10.58-117.79,148.15-138L1430.4,273.56l-4.15,164.71-117.78-17.94s-104.9,37.72-106.28,37.72C1201.35,458.05,1153.66,442.6,1116,430.37Z" transform="translate(-257.65 -102.35)"/></g><g id="注连绳笔刷"><path class="cls-2" d="M900,485.57l8.41,14.56L899.69,505c-6.1,3.45-11.16,1.93-14.75-4.25l-8.61-14.9,8.35-4.72c6.16-3.56,14.36-3.21,17.92,3Z" transform="translate(-257.65 -102.35)"/><path class="cls-2" d="M927.83,484.06c-3.56-6.17-13.31-6.77-19.48-3.21L900,485.57l8.6,14.9a12.75,12.75,0,0,0,17.15,5.08c.46-.33,7.91-5.48,7.91-5.48l-8.35-14.47Z" transform="translate(-257.65 -102.35)"/><path class="cls-2" d="M876.33,485.86l8.41,14.56-6.68,4.08a13,13,0,0,1-16.4-5.43l-8.6-14.9,8.34-4.72a13.15,13.15,0,0,1,17.82,4.78Z" transform="translate(-257.65 -102.35)"/><path class="cls-2" d="M853.06,484.17,861,497.84l-4.16,2.6A11.29,11.29,0,0,1,841.72,496L838.21,490c-2.25-4.1-1.4-8.44,2.72-10.66l1.75-1c5.54-3,10.77-1.52,13.72,3.87Z" transform="translate(-257.65 -102.35)"/><path class="cls-2" d="M950.66,486.66,957.81,499l-7.39,4.2c-6.17,3.56-13.84,1.82-17.19-3.94l-8-13.79,8.33-4.73c6.17-3.56,17.65-2,20.95,3.67Z" transform="translate(-257.65 -102.35)"/><path class="cls-2" d="M975.54,481.5l9.29,12.81-10.14,6.5c-5.44,2.81-9.93,4.26-16.43-1l-7.6-13.18,8.33-4.73c9.06-6,14.76-8.28,18.84-1.76Z" transform="translate(-257.65 -102.35)"/><path class="cls-2" d="M1003.46,475.89c-3.15-4.69-13.92-3.53-19.84.44l-8,5.29,8,11.24c3.21,4.74,10.19,5.41,16.1,1.44l8.13-5.08-7.31-11.29Z" transform="translate(-257.65 -102.35)"/><path class="cls-2" d="M1021.29,489.32c-6,3.84-11.56,3.05-14.33-1.24l-6.55-10.27,8.11-5.1c6-3.83,12.68-3.53,15.4.72l.09.14c.18.28.43.66.71,1.12a10.71,10.71,0,0,1-3.43,14.63h0" transform="translate(-257.65 -102.35)"/></g><g id="纸垂"><polygon class="cls-3" points="678.58 404.72 666.51 433.25 678.58 455.28 693 430 678.58 404.72"/><polygon class="cls-3" points="668.81 458.15 680.5 437.01 696.16 458.15 680.5 478.79 668.81 458.15"/><polygon class="cls-3" points="668.81 478.28 681.32 464.25 694.63 478.28 680.61 496.27 668.81 478.28"/><polygon class="cls-3" points="663.63 502.17 675.52 480.26 689.75 499.73 676.69 514.98 663.63 502.17"/><polygon class="cls-3" points="663.22 521.28 675.73 503.59 689.75 522.91 673.9 539.88 663.22 521.28"/><path class="cls-3" d="M916.3,643.86c.41,0,15.86-14.43,15.86-14.43L944,646.3l-16,15.56Z" transform="translate(-257.65 -102.35)"/><polygon class="cls-3" points="653.67 563.88 669.83 545.17 679.75 564.36 665.97 578.01 653.67 563.88"/><path class="cls-3" d="M905.37,686.25s14.69-15.75,15.51-15.14,8.13,17,8.13,17l-14.64,14.44Z" transform="translate(-257.65 -102.35)"/><polygon class="cls-3" points="620.77 407.21 605.71 432.13 612.55 449.25 628.99 434.46 620.77 407.21"/><polygon class="cls-3" points="613.92 440.62 601.32 455.28 605.71 473.9 622.41 464.25 613.92 440.62"/><polygon class="cls-3" points="607.08 465.14 613.65 481.03 599.41 492.53 591.33 475.82 607.08 465.14"/><polygon class="cls-3" points="604.06 484.18 602.49 501.71 588.04 507.46 587.36 487.6 604.06 484.18"/><polygon class="cls-3" points="595.71 498.42 596.39 521.74 579.68 528.55 580.51 506.5 595.71 498.42"/><polygon class="cls-3" points="588.04 518.96 589.27 536.22 571.61 542.52 571.61 524.58 588.04 518.96"/><polygon class="cls-3" points="578.04 535.26 575.03 553.89 552.16 559.5 556.81 536.36 578.04 535.26"/><polygon class="cls-3" points="565.1 553.07 562.43 570.05 540.65 578.81 542.02 555.26 565.1 553.07"/><polygon class="cls-3" points="741.53 401.73 757.53 419.71 754.51 437.65 735.23 424.61 741.53 401.73"/><polygon class="cls-3" points="748.12 425.71 739.03 447.99 751.32 461.58 765.4 444.29 748.12 425.71"/><polygon class="cls-3" points="751.4 455.28 747.5 469.42 759.98 477.27 768.95 461.58 751.4 455.28"/><polygon class="cls-3" points="758.23 471.64 755.49 486.97 775 492.53 778.12 478.79 758.23 471.64"/><polygon class="cls-3" points="766.81 486.19 759.2 505.11 775.39 516.03 782.6 501.11 766.81 486.19"/><polygon class="cls-3" points="773.24 507.46 766.81 530.74 781.43 538.26 788.85 522.86 773.24 507.46"/><polygon class="cls-3" points="784.16 525.39 776.75 541.38 788.85 549.77 798.4 535.26 784.16 525.39"/><path class="cls-3" d="M1047,645.64s-7.91,17.21-6.74,17.21,17.94,14.23,17.94,14.23l8.58-12.09Z" transform="translate(-257.65 -102.35)"/></g></svg>