<?xml version="1.0" encoding="utf-8"?>
<!-- Generator: $$$/GeneralStr/196=Adobe Illustrator 27.6.0, SVG Export Plug-In . SVG Version: 6.00 Build 0)  -->
<svg version="1.1" id="图层_1" xmlns="http://www.w3.org/2000/svg" xmlns:xlink="http://www.w3.org/1999/xlink" x="0px" y="0px"
	 viewBox="0 0 1920 1080" style="enable-background:new 0 0 1920 1080;" xml:space="preserve">
<style type="text/css">
	.st0{fill:#FFFFFF;}
</style>
<path d="M1186.22,692.22c-36.54-11.83-74.01-18.94-107.75-37.62c-2.89-1.65-4.65-1.31-6.96,0.62c-25.35,21.11-57.36,33.26-90,37.42
	c-6.37,0.83-6.37,0.9-6.37,7.28c-0.42,38.62,0.86,77.4-0.42,115.93c-4.05-38.97-9.18-77.96-12.67-117.03
	c-0.25-3.93-1.27-5.38-5.64-5.46c-40.2-0.75-75.99-13.43-106.68-39.25c-2.1-1.77-3.57-1.48-5.35-0.39
	c-31.83,17.69-68.61,27.23-103.6,35.94c30.65-14.5,59.88-29.5,88.75-46.93c2.87-1.69,3.97-2.78,1.01-5.86
	c-13.76-14.34-24.33-30.85-32.25-48.92c-16.72-37.72-17.75-81.43-5.84-120.67c0.92-5.5,6.7-10.56-0.41-14.05
	c-37.73-25.15-71.59-58.31-94.65-96.63c17.39,21.62,38.07,39.91,61.4,54.92c13.4,8.89,27.12,17.32,40.52,26.22
	c3.51,2.33,5.14,1.58,6.97-1.72c27.22-49.23,79.73-83.47,135.76-88.81c3.89-0.47,4.91-2.41,4.89-5.78
	c0.7-39.33-1.35-79.75,0.52-118.54c4.31,39.94,9.51,79.91,14.35,119.76c-0.12,3.15,1.73,3.35,4.24,3.38
	c60.31,0.99,116.08,34.43,147.34,85.31c4.8,7.11,4.87,7.21,12.12,2.27c38.14-25.42,72.73-54.85,105.03-87.14
	c-25.47,41.54-60.26,77.04-100.41,104.72c-4.92,3.39-4.74,3.95-2.84,9.45c11.29,30.78,13.26,64.62,6.26,96.67
	C1103.31,675.8,1034.56,610.68,1186.22,692.22z"/>
<path class="st0" d="M1068.81,512.49c-7.52-10.42-7.9-24.52-14.46-35.66c-6.13-11.3-12.58-22.39-17.17-34.51
	c-8.17-23-33.86-23.7-54.16-18.75c-13.43,1.8-16.2,2.6-20.14-9.18c-16.17-27.41-54.81,12.81-74.56,18.28
	c-21.25,8.27-74.27,34.76-62.65,62.69c9,20.78-13.32,42.27,4.42,60.62c14.14,23.97,27.01,51.27,54.13,63.5
	c-12.57-12.91-28.97-22.08-36.89-38.81c-3.89-6.92-5.82-14.9-11.08-21.05c-7.47-8.73-8.54-18.72-5.4-28.99
	c3.61-11.81,3.34-23.32-0.11-34.96c-1.03-3.48-0.71-6.87,0.18-10.28c0.45-3.48,4.7-2.99,3.87,0.5c-0.62,9.2,3.11,17.31,6.37,25.59
	c12.05,22.97-2.88,36.97,7.67,57.82c4.53,7.44,23.37,37.97,33.03,29.56c-19.66-6.48-35.03-30.58-30.66-51.14
	c3.47-16.19-3.79-32.08-8.09-47.41c-9.18-27.22,24.93-36.81,45.33-39.5c20.94-2.73,37.55-16.21,56.75-23.7
	c11.57-4.77,23.77,2,34.32,6.73c5.48,2.3,3.2,7.96-2.07,5.53c-14.02-5.05-23.57,6.75-36.24,9.67c-17.89,3.29-37.33-1.09-52.72,11.06
	c-7.82,5.52-10.69,13.83-12.39,22.48c-8.49,21.63-18.05-4.97-14.75,39.37c4.12,67.34,46.3,54.47,51.3,79.46
	c3.75,13.67,17.28,21.31,29.87,25.78c10.55,4.89,22.76,1.71,33.24-1.65c2.01-0.62,5.6-0.55,5.34-3.21
	c-4.77-8.27-31.49,2.25-34.33-5.59c3.65-6.55,15.58-3.64,21.94-5.46c4.99-1.1,8.88,0.24,12.26,3.77c3.48,3.92,11.38-1.12,13.57-4.88
	c0.86-1.67,2.29-2.97,4.21-3.66c11-5.92,29.32-14.61,33.36-26.89c2.52-5.28,10.47-5.11,8.5,2.57c-0.36,7.27-8.53,6.59-1.58,14.58
	c7.32-23.12,18.16-46.48,31.37-67.65C1075.74,529.74,1077.36,521.03,1068.81,512.49z M958.56,424.67
	c-31.54,0.91-49.87,29.63-83.27,30.9c-5.42,0.73-10.68,2.55-16,3.93c-0.78,0.2-1.62,1.21-2.2,0.04
	c17.2-17.72,46.75-21.56,67.07-36.86c7.29-4.55,15.43-8.47,25.72-8.16C954.14,412.31,967.32,422.49,958.56,424.67z M980.55,473.94
	c11.75-11.29,35.31-4.27,34.28,11.85c-0.21,5.58-2.82,10.82-2.52,16.56c0.11,2.11-1.72,1.99-3.6,1.51
	c-7.19-0.97-12.26-8.91-19.45-7.91c-2.38,0.81-4.74,0.54-6.52-1.37c-3.61-4.08-7.96,3.06-11.28-0.62
	C965.87,487.36,971.81,475.04,980.55,473.94z M991.11,523.39c2.75-7.35,8.88-11.16,17.76-10.93c3.83-0.36,5.9,5.8,2.13,7.21
	c-5.66,2.41-11.84,3.56-17.16,6.83C992.01,527.48,989.92,525.26,991.11,523.39z M986.89,512.52c-1.85,0.57-8.53-4.66-8.94-6.85
	c-2.86-10.93,14.16-11.37,14.01-0.37C992.36,508.86,990.5,511.41,986.89,512.52z M880.59,541.08c-15.18,3.55-19.08-29.44-5.92-33.66
	c1.95-1.01,3.46-0.37,2.87,2.26C870.18,531.51,882.88,533.91,880.59,541.08z M945.65,545.15c-2.71,7.15-6.82,9.16-14.13,6.92
	c-9.48-2.04-21.78-3.49-27.32-14.8c-5.54-11.31,3.33-25.59,19.11-19.84C934.48,490.44,966.76,513.36,945.65,545.15z M944.3,481.73
	c-16.29,17.37-38.54-8.25-57.18,13.62c-1.01,0.93-2.01,3.18-3.88,1.87c-0.94-35.14,46.87-22.68,68.44-30.72
	c2.67-0.76,6.02-2.04,7.41,2.03C960.02,477.34,948.07,475.56,944.3,481.73z M966,552.18c-0.07-0.18,0.27-0.72,0.31-0.71
	c5.38,1.55,5.7-4.68,9.48-5.96c8.06-3.48,17.95-0.68,24.95-6.55c2.01-1.72-0.06-3.75-0.29-5.64c-0.42-3.44,3.59-8.08,7.61-8.04
	c3.7,0.04,3.73,3.24,4.29,5.96c7.66,31.33-16.96,10.86-24.83,30.72c-3.06,7.26-5.79,2.1-8.99-2.03c-4.12-5.55-4.14-5.6-10.27-2.79
	c-1.74,0.8-3.34,0.34-5.3,0.3C963.92,555.17,967.11,554.96,966,552.18z M982.18,603.26c-4.66,4.28-6.43,4.4-10.89-0.18
	c-18.69-16.84,2.28-7.25,20.98-35.64c1.19-1.65,3.87-2.51,7.08-2.49C1030.82,572.84,1002.26,575.35,982.18,603.26z M1022.46,568.72
	c-7.77-0.06-11.69-3.53-17.73-6.55c-1.81-1.17-5.46-0.39-5.29-3.57c0.16-3,3.55-3.2,5.7-3.96c8.38-1.43,13.91-11.53,16.68-5.37
	C1025.35,558.24,1036.3,564.13,1022.46,568.72z M1043.33,476.69c-17.57-38.01-99.09-42-36.99-47.28
	c15.07,0.91,24.51,6.43,28.38,19.92c2.63,9.18,8.38,16.76,12.39,25.23C1051.83,480.4,1046.25,482.62,1043.33,476.69z"/>
</svg>
